HIERARCHY
ROOT Hips
{
	OFFSET 0.000000 0.000000 0.000000
	CHANNELS 6 Xposition Yposition Zposition Zrotation Yrotation Xrotation 
	JOINT LeftUpLeg_virtual
	{
		OFFSET 0.000000 0.000000 0.000000
		CHANNELS 3 Zrotation Yrotation Xrotation
		JOINT LeftUpLeg
		{
			OFFSET 8.479694 -4.795517 -0.379053
			CHANNELS 3 Zrotation Yrotation Xrotation
			JOINT LeftLeg
			{
				OFFSET 0.485052 -32.551468 0.112863
				CHANNELS 3 Zrotation Yrotation Xrotation
				JOINT LeftFoot
				{
					OFFSET 0.438033 -32.635670 -3.012641
					CHANNELS 3 Zrotation Yrotation Xrotation
					JOINT LeftToeBase
					{
						OFFSET 0.970169 -13.225353 11.864223
						CHANNELS 3 Zrotation Yrotation Xrotation
						End Site
						{
							OFFSET 0.000000 0.000000 0.000000
						}
					}
				}
			}
		}
	}
	JOINT RightUpLeg_virtual
	{
		OFFSET 0.000000 0.000000 0.000000
		CHANNELS 3 Zrotation Yrotation Xrotation
		JOINT RightUpLeg
		{
			OFFSET -8.479694 -4.795517 -0.379053
			CHANNELS 3 Zrotation Yrotation Xrotation
			JOINT RightLeg
			{
				OFFSET -0.484100 -32.551483 0.112903
				CHANNELS 3 Zrotation Yrotation Xrotation
				JOINT RightFoot
				{
					OFFSET -0.438985 -32.635651 -3.012681
					CHANNELS 3 Zrotation Yrotation Xrotation
					JOINT RightToeBase
					{
						OFFSET -0.970169 -13.225354 11.864223
						CHANNELS 3 Zrotation Yrotation Xrotation
						End Site
						{
							OFFSET 0.000000 0.000000 0.000000
						}
					}
				}
			}
		}
	}
	JOINT Spine_virtual
	{
		OFFSET 0.000000 0.000000 0.000000
		CHANNELS 3 Zrotation Yrotation Xrotation
		JOINT Spine
		{
			OFFSET 0.000000 7.722015 1.166203
			CHANNELS 3 Zrotation Yrotation Xrotation
			JOINT Spine1
			{
				OFFSET 0.000000 12.024086 0.248766
				CHANNELS 3 Zrotation Yrotation Xrotation
				JOINT Spine2
				{
					OFFSET -0.000000 11.503036 -0.491240
					CHANNELS 3 Zrotation Yrotation Xrotation
					JOINT Neck_virtual
					{
						OFFSET 0.000000 0.000000 0.000000
						CHANNELS 3 Zrotation Yrotation Xrotation
						JOINT Neck
						{
							OFFSET 0.000000 18.430687 -3.123054
							CHANNELS 3 Zrotation Yrotation Xrotation
							JOINT Head
							{
								OFFSET -0.000000 9.051071 1.034021
								CHANNELS 3 Zrotation Yrotation Xrotation
								End Site
								{
									OFFSET 0.000000 0.000000 0.000000
								}
							}
						}
					}
					JOINT LeftShoulder_virtual
					{
						OFFSET 0.000000 0.000000 0.000000
						CHANNELS 3 Zrotation Yrotation Xrotation
						JOINT LeftShoulder
						{
							OFFSET 6.197824 13.665230 -4.064723
							CHANNELS 3 Zrotation Yrotation Xrotation
							JOINT LeftArm
							{
								OFFSET 7.778132 -0.187073 -1.709282
								CHANNELS 3 Zrotation Yrotation Xrotation
								JOINT LeftForeArm
								{
									OFFSET 21.954697 0.000000 -2.041093
									CHANNELS 3 Zrotation Yrotation Xrotation
									JOINT LeftHand
									{
										OFFSET 22.992908 0.000000 -0.870901
										CHANNELS 3 Zrotation Yrotation Xrotation
										End Site
										{
											OFFSET 0.000000 0.000000 0.000000
										}
									}
								}
							}
						}
					}
					JOINT RightShoulder_virtual
					{
						OFFSET 0.000000 0.000000 0.000000
						CHANNELS 3 Zrotation Yrotation Xrotation
						JOINT RightShoulder
						{
							OFFSET -6.197824 13.665230 -4.064723
							CHANNELS 3 Zrotation Yrotation Xrotation
							JOINT RightArm
							{
								OFFSET -7.778132 -0.187073 -1.709282
								CHANNELS 3 Zrotation Yrotation Xrotation
								JOINT RightForeArm
								{
									OFFSET -21.954697 0.000000 -2.041093
									CHANNELS 3 Zrotation Yrotation Xrotation
									JOINT RightHand
									{
										OFFSET -22.992908 0.000000 -0.870901
										CHANNELS 3 Zrotation Yrotation Xrotation
										End Site
										{
											OFFSET 0.000000 0.000000 0.000000
										}
									}
								}
							}
						}
					}
				}
			}
		}
	}
}
MOTION
Frames: 7
Frame Time: 0.033333
31.237312 79.026466 -24.064777 179.988462 0.913607 -179.927578 -1.102518 -0.488423 9.413535 2.560427 -1.204752 -31.666782 5.749701 8.310383 29.005426 -2.315036 -4.917883 -10.384356 0.000000 0.000000 0.000000 2.911343 -1.453032 9.519935 -2.508693 6.226445 -29.977946 -0.232283 7.101564 30.696772 10.626001 8.631926 -15.081763 0.000000 0.000000 0.000000 3.721129 1.655029 -2.916424 -2.870438 -3.465347 -5.517397 -1.816903 -1.241768 10.896261 0.005917 -0.018155 0.005387 -2.127119 0.354171 11.216444 -1.358572 -0.122888 -0.207994 0.000000 0.000000 0.000000 -0.559784 0.933765 8.440027 -12.002604 -9.073759 2.129144 -57.541325 -8.009195 12.450927 1.355753 -23.946401 3.241475 0.000000 0.000000 0.000000 -4.890255 2.481771 7.753755 27.084260 2.822364 7.166059 50.413073 5.770428 15.116971 -6.439539 26.232668 -3.342807 0.000000 0.000000 0.000000 
31.270287 79.022102 -24.046513 179.981550 1.046914 -179.935911 -0.925183 -0.509694 9.519816 2.298615 -0.999282 -31.552363 5.824089 8.640416 29.224822 -2.064556 -4.576453 -10.201091 0.000000 0.000000 0.000000 2.857983 -1.230031 9.584806 -2.658102 6.505997 -30.083606 -0.228847 7.304317 30.738399 10.898907 8.957827 -15.096110 0.000000 0.000000 0.000000 3.709397 1.704156 -2.941567 -2.885621 -3.437899 -5.488038 -1.832012 -1.187870 10.956493 -0.021535 0.010640 0.031153 -2.108657 0.300958 11.182096 -1.346819 0.042764 -0.173059 0.000000 0.000000 0.000000 -0.573633 0.993505 8.396010 -11.955131 -9.074086 2.091830 -57.447007 -8.045653 12.495902 1.355093 -24.020319 3.199568 0.000000 0.000000 0.000000 -4.850383 2.487750 7.710768 27.094297 2.848739 7.089886 50.457975 5.753253 15.213690 -6.475247 26.292002 -3.419149 0.000000 0.000000 0.000000 
31.316776 79.013382 -24.013992 179.980034 1.104639 -179.924395 -0.924604 -0.460029 9.483511 2.309421 -0.934822 -31.517963 5.797881 8.610234 29.185327 -2.085118 -4.555123 -10.230725 0.000000 0.000000 0.000000 2.877757 -1.238714 9.501100 -2.698799 6.499412 -30.027964 -0.297332 7.259659 30.634795 11.099356 9.156550 -14.948991 0.000000 0.000000 0.000000 3.670960 1.746959 -2.982651 -2.893625 -3.441484 -5.469951 -1.818453 -1.194358 10.983995 -0.014718 0.033187 0.015092 -2.097802 0.374088 11.245317 -1.324029 0.034869 -0.124922 0.000000 0.000000 0.000000 -0.558203 0.939654 8.447169 -11.878777 -9.115136 2.021794 -57.335169 -7.942599 12.478942 1.265003 -24.317456 3.285643 0.000000 0.000000 0.000000 -4.823840 2.422092 7.792560 27.102005 2.921867 7.123022 50.450868 5.905560 15.275689 -6.445312 26.407053 -3.378334 0.000000 0.000000 0.000000 
31.361168 79.005783 -23.964600 179.988926 1.134241 -179.923015 -0.878072 -0.448607 9.424949 2.289384 -0.938912 -31.466767 5.818350 8.567877 29.131184 -2.087316 -4.513227 -10.235009 0.000000 0.000000 0.000000 2.901281 -1.244375 9.468241 -2.704565 6.425360 -30.036023 -0.150082 7.232381 30.612399 11.122371 9.141454 -14.890600 0.000000 0.000000 0.000000 3.638907 1.759687 -3.025726 -2.917153 -3.472464 -5.432429 -1.788720 -1.232660 11.066857 0.039109 0.001972 -0.002781 -2.155961 0.158562 11.243311 -1.398266 0.169353 -0.104717 0.000000 0.000000 0.000000 -0.594504 0.918056 8.404990 -11.846433 -9.117121 2.103851 -57.198480 -7.979434 12.586560 1.209507 -24.649917 3.313921 0.000000 0.000000 0.000000 -4.859750 2.409195 7.799567 27.118388 2.917285 7.155994 50.419613 5.986191 15.318516 -6.371976 26.465605 -3.458666 0.000000 0.000000 0.000000 
31.416660 79.003036 -23.897026 179.977670 1.260323 -179.964283 -1.003884 -0.406151 9.382798 2.387619 -0.854143 -31.427217 5.845530 8.423148 29.088393 -2.120934 -4.524427 -10.291870 0.000000 0.000000 0.000000 2.863532 -1.233950 9.474222 -2.728100 6.486050 -30.052197 0.017686 7.170235 30.576851 11.167144 9.096694 -14.773708 0.000000 0.000000 0.000000 3.611556 1.813724 -3.060133 -2.930688 -3.442505 -5.289615 -1.767781 -1.209400 10.999165 -0.001084 0.027791 0.024809 -2.067710 0.306491 11.301028 -1.307329 0.117641 -0.083789 0.000000 0.000000 0.000000 -0.531269 0.837844 8.445584 -11.799260 -9.160220 2.067767 -57.080550 -7.977993 12.568930 1.062658 -24.982513 3.442395 0.000000 0.000000 0.000000 -4.774418 2.298109 7.814157 27.118689 2.922905 7.098951 50.375746 5.978664 15.442685 -6.377513 26.450568 -3.456247 0.000000 0.000000 0.000000 
31.461330 78.998421 -23.811783 179.946497 1.339885 -179.945801 -0.981199 -0.454515 9.359202 2.260323 -0.775031 -31.456433 6.026521 8.350005 29.033502 -2.116247 -4.511643 -10.262730 0.000000 0.000000 0.000000 2.827767 -1.292874 9.526662 -2.785749 6.533791 -30.205391 0.187623 7.119516 30.557187 11.144516 9.032240 -14.815517 0.000000 0.000000 0.000000 3.575678 1.847865 -3.057779 -2.955701 -3.495875 -5.239862 -1.732161 -1.266702 10.929798 0.033941 0.031495 0.001830 -2.079439 0.172793 11.359979 -1.326025 0.243875 -0.118853 0.000000 0.000000 0.000000 -0.523018 0.867750 8.539709 -11.771006 -9.255876 2.132228 -56.990392 -8.100874 12.678587 1.022537 -25.219386 3.344023 0.000000 0.000000 0.000000 -4.754996 2.306843 7.849432 27.205589 2.904165 7.113748 50.297339 6.038501 15.414656 -6.231424 26.398691 -3.377847 0.000000 0.000000 0.000000 
31.496881 79.000969 -23.715981 179.932372 1.471685 -179.928315 -1.129985 -0.523293 9.408429 2.397252 -0.694700 -31.531141 5.961004 8.090572 28.884559 -2.005684 -4.370598 -10.275006 0.000000 0.000000 0.000000 2.775849 -1.362008 9.540218 -2.717810 6.487506 -30.225079 0.166849 7.093362 30.285749 11.289369 9.141903 -14.504716 0.000000 0.000000 0.000000 3.567174 1.870842 -3.042953 -2.934533 -3.478973 -5.237073 -1.725090 -1.284292 10.900798 -0.018463 0.022479 0.025840 -1.987822 0.234740 11.305046 -1.299666 0.236436 -0.133475 0.000000 0.000000 0.000000 -0.471006 0.822998 8.487675 -11.816448 -9.275049 2.152443 -56.968924 -8.096691 12.700030 0.898941 -25.422611 3.382559 0.000000 0.000000 0.000000 -4.689940 2.296026 7.808815 27.285267 2.899848 7.135642 50.102122 6.085054 15.446165 -6.154097 26.285399 -3.385130 0.000000 0.000000 0.000000 
